<?xml version="1.0" standalone="no"?><!DOCTYPE svg PUBLIC "-//W3C//DTD SVG 1.1//EN" "http://www.w3.org/Graphics/SVG/1.1/DTD/svg11.dtd"><svg t="1765375895771" class="icon" viewBox="0 0 1024 1024" version="1.1" xmlns="http://www.w3.org/2000/svg" p-id="1612" xmlns:xlink="http://www.w3.org/1999/xlink" width="200" height="200"><path d="M512 749.062058c-135.858962 0-246.36393-110.529969-246.36393-246.38893S376.129038 256.296197 512 256.296197s246.37693 110.517969 246.37693 246.376931S647.846962 749.063058 512 749.063058z m0-440.923875c-107.27297 0-194.522945 87.273975-194.522945 194.534945S404.66503 697.208073 512 697.208073s194.547945-87.273975 194.547945-194.534945S619.24797 308.138183 512 308.138183z" fill="#221714" p-id="1613"></path><path d="M49.966131 1023.99998a25.907993 25.907993 0 0 1-25.216993-31.965991l55.653984-232.509934a500.747858 500.747858 0 0 1-71.08798-256.849927C9.327142 225.490206 234.840078 0.00027 512 0.00027a501.439858 501.439858 0 0 1 164.086954 27.425992 25.947993 25.947993 0 0 1-16.901996 49.065986A449.325873 449.325873 0 0 0 512 51.817255c-248.58493 0-450.806872 202.233943-450.806872 450.819873a449.079873 449.079873 0 0 0 68.91698 238.689932 26.031993 26.031993 0 0 1 3.231999 19.887994L85.004121 963.039997l100.314972-24.019993a25.929993 25.929993 0 0 1 12.078996 50.433986l-141.38596 33.82999a26.450993 26.450993 0 0 1-6.045998 0.715zM512 1005.345985a497.984859 497.984859 0 0 1-210.35194-46.585987 25.907993 25.907993 0 1 1 21.725993-47.029986A446.709873 446.709873 0 0 0 512 953.504c248.59693 0 450.843872-202.232943 450.843872-450.818872a452.027872 452.027872 0 0 0-189.501946-367.380896 25.929993 25.929993 0 0 1 30.102991-42.229988 504.004857 504.004857 0 0 1 211.227941 409.599884c0 277.169922-225.501936 502.671858-502.672858 502.671857z" fill="#221714" p-id="1614"></path></svg>